<svg width="102" height="122" viewBox="0 0 102 122" fill="none" xmlns="http://www.w3.org/2000/svg">
<path d="M248.157 0H248.657V-0.5H248.157V0ZM211.815 87.7373L212.169 88.0909L212.169 88.0909L211.815 87.7373ZM145.362 122.239H144.862V122.834L145.448 122.732L145.362 122.239ZM145.362 96.7695L145.255 96.2812L144.862 96.3676V96.7695H145.362ZM194.142 70.0635L194.495 70.417L194.495 70.417L194.142 70.0635ZM223.163 0V-0.5H222.663V0H223.163ZM24.9941 0L25.4941 -7.54979e-08L25.4941 -0.5H24.9941V0ZM54.0146 70.0635L53.6611 70.417L53.6611 70.417L54.0146 70.0635ZM101.988 96.5889H102.488V96.1903L102.1 96.1015L101.988 96.5889ZM101.988 122.094L101.899 122.586L102.488 122.692V122.094H101.988ZM36.3418 87.7373L35.9882 88.0909L35.9882 88.0909L36.3418 87.7373ZM0 0V-0.5H-0.5L-0.5 7.54979e-08L0 0ZM248.157 0H247.657C247.657 32.7751 234.637 64.2083 211.462 87.3838L211.815 87.7373L212.169 88.0909C235.532 64.7279 248.657 33.0403 248.657 0H248.157ZM211.815 87.7373L211.462 87.3838C193.345 105.5 170.182 117.41 145.277 121.747L145.362 122.239L145.448 122.732C170.555 118.36 193.906 106.354 212.169 88.0909L211.815 87.7373ZM145.362 122.239H145.862V96.7695H145.362H144.862V122.239H145.362ZM145.362 96.7695L145.47 97.2579C163.895 93.2051 180.946 83.9658 194.495 70.417L194.142 70.0635L193.788 69.7099C180.375 83.1225 163.495 92.2691 145.255 96.2812L145.362 96.7695ZM194.142 70.0635L194.495 70.417C213.171 51.7414 223.663 26.4114 223.663 0H223.163H222.663C222.663 26.1462 212.276 51.2218 193.788 69.7099L194.142 70.0635ZM223.163 0V0.5H248.157V0V-0.5H223.163V0ZM24.9941 0L24.4941 7.54979e-08C24.4941 26.4113 34.9855 51.7414 53.6611 70.417L54.0146 70.0635L54.3682 69.7099C35.8802 51.2218 25.4941 26.1461 25.4941 -7.54979e-08L24.9941 0ZM54.0146 70.0635L53.6611 70.417C67.0111 83.767 83.7621 92.9331 101.877 97.0763L101.988 96.5889L102.1 96.1015C84.1668 91.9998 67.584 82.9258 54.3682 69.7099L54.0146 70.0635ZM101.988 96.5889H101.488V122.094H101.988H102.488V96.5889H101.988ZM101.988 122.094L102.077 121.602C77.4774 117.151 54.6171 105.305 36.6953 87.3838L36.3418 87.7373L35.9882 88.0909C54.0551 106.158 77.1004 118.099 101.899 122.586L101.988 122.094ZM36.3418 87.7373L36.6954 87.3838C13.5199 64.2083 0.500005 32.7751 0.5 -7.54979e-08L0 0L-0.5 7.54979e-08C-0.499995 33.0403 12.6252 64.7279 35.9882 88.0909L36.3418 87.7373ZM0 0V0.5H24.9941V0V-0.5H0V0Z" fill="black"/>
</svg>
